<svg width="73" height="77" viewBox="0 0 73 77" fill="none" xmlns="http://www.w3.org/2000/svg">
<rect y="13.1064" width="13.1064" height="73" transform="rotate(-90 0 13.1064)" fill="#8B5CF6"/>
<rect y="35.2234" width="13.9255" height="15.2952" transform="rotate(-90 0 35.2234)" fill="#8B5CF6"/>
<rect y="77" width="11.4681" height="15.2952" transform="rotate(-90 0 77)" fill="#8B5CF6"/>
<rect y="56.5213" width="13.1064" height="15.2952" transform="rotate(-90 0 56.5213)" fill="#8B5CF6"/>
<rect x="19.4667" y="35.2234" width="13.9255" height="15.2952" transform="rotate(-90 19.4667 35.2234)" fill="#8B5CF6"/>
<rect x="19.4667" y="77" width="11.4681" height="15.2952" transform="rotate(-90 19.4667 77)" fill="#8B5CF6"/>
<rect x="19.4667" y="56.5213" width="13.1064" height="15.2952" transform="rotate(-90 19.4667 56.5213)" fill="#8B5CF6"/>
<rect x="38.9333" y="35.2234" width="13.9255" height="15.2952" transform="rotate(-90 38.9333 35.2234)" fill="#8B5CF6"/>
<rect x="38.9333" y="77" width="11.4681" height="15.2952" transform="rotate(-90 38.9333 77)" fill="#8B5CF6"/>
<rect x="38.9333" y="56.5213" width="13.1064" height="15.2952" transform="rotate(-90 38.9333 56.5213)" fill="#8B5CF6"/>
<rect x="57.7048" y="35.2234" width="13.9255" height="15.2952" transform="rotate(-90 57.7048 35.2234)" fill="#8B5CF6"/>
<rect x="57.7048" y="77" width="11.4681" height="15.2952" transform="rotate(-90 57.7048 77)" fill="#8B5CF6"/>
<rect x="57.7048" y="56.5213" width="13.1064" height="15.2952" transform="rotate(-90 57.7048 56.5213)" fill="#8B5CF6"/>
</svg>
