<svg width="121" height="164" viewBox="0 0 121 164" fill="none" xmlns="http://www.w3.org/2000/svg">
<path d="M116.699 139.133H98.9487C94.9675 132.635 89.511 130.727 89.511 130.727C103.845 110.573 84.7328 90.9359 84.7328 90.9359C74.2233 69.2286 102.89 85.7676 102.89 85.7676C105.164 88.0035 104.482 88.8834 102.982 89.1659C102.453 88.876 101.82 88.6513 101.08 88.4916C99.6215 83.5198 94.8772 88.3156 91.3471 87.8365C91.8229 90.4184 91.3471 90.4184 92.78 91.9682C90.8673 95.5868 93.7343 97.6555 96.6027 95.5868C97.0812 98.6908 103.292 98.6908 102.812 93.0019C102.812 93.0019 104.724 93.5194 105.202 93.5194C105.202 92.5183 105.035 91.6991 104.722 91.0026C107.485 90.8709 109.579 89.9038 109.579 89.9038C113.401 80.5993 99.0691 72.3268 99.0691 72.3268C78.046 55.7908 70.4006 82.6637 70.4006 82.6637C49.8574 64.5782 69.9248 50.6255 69.9248 50.6255C82.0614 51.1594 86.7413 48.7785 88.4433 46.3621C89.6464 48.8804 95.1728 48.1514 95.1728 44.4219C102.815 42.8721 92.7829 33.572 91.3501 39.7757C88.5843 37.6388 89.5112 38.9298 89.0218 41.8637C84.7273 50.6106 79.9599 44.4206 79.9599 44.4206C91.4266 39.2538 90.4694 29.9519 90.4694 29.9519C92.3369 24.9018 92.2262 21.6056 91.4059 19.4436C92.1606 19.3652 92.9481 19.1005 93.7383 18.5873C92.784 16.0009 93.2625 14.4511 91.827 12.9012C100.876 4.0907 79.9515 7.79199 85.8196 12.1633C82.4509 11.0971 79.8 18.1243 87.0487 18.5873L87.5286 17.5521C87.9634 18.1791 88.4952 18.6434 89.0804 18.9703C90.3327 22.5682 89.5151 25.8186 89.5151 25.8186C88.5608 19.618 78.5297 20.1355 78.5297 20.1355C76.9574 12.9589 74.6867 9.7263 72.4348 8.50049C74.4596 6.63277 74.8725 4.15298 71.2836 3.59686C70.9008 1.10215 68.9648 0.979373 66.9796 2.36354C67.5128 -4.32657 55.718 5.11705 58.5674 6.99953C58.0533 7.31895 57.475 7.89864 56.4742 8.76375C57.9056 11.4729 60.6742 12.4415 63.1788 11.4581C63.7257 11.8589 64.3149 12.1768 65.0724 12.3809C65.5523 11.3487 65.0724 11.3487 65.0724 10.3135C66.5366 10.8415 68.0911 10.7232 69.4855 10.2485C71.6498 12.0955 72.7914 15.9994 72.7914 15.9994C71.833 24.2674 78.0484 27.8846 78.0484 27.8846C84.2581 30.4666 77.5699 34.6012 77.5699 34.6012C31.7024 29.9505 36.0004 73.3631 36.0004 73.3631C31.702 71.8119 26.445 81.6327 26.445 81.6327C23.7066 84.1392 20.5962 83.1248 17.974 81.2112C18.231 81.0145 18.5058 80.8356 18.7245 80.599C18.7245 80.0814 17.7702 79.5638 17.7702 79.0477C24.457 78.5301 24.9344 68.7123 20.1573 72.3341C25.8928 67.1628 15.8548 64.581 16.3332 68.7155C14.5887 67.1421 12.3233 67.1184 10.7017 68.26C8.70975 66.3628 1.66054 66.376 2.95519 72.3342C-3.03716 71.9024 1.32275 79.7414 5.14405 78.7109C4.94581 79.4207 5.48312 80.0935 6.42785 80.5993H6.29798C8.6673 82.433 12.4639 83.1946 15.5047 82.3946C23.0434 95.6313 30.2635 87.832 30.2635 87.832C32.179 81.6329 37.9075 82.1458 37.9075 82.1458C37.9075 90.4154 49.8513 101.267 49.8513 101.267C51.7626 103.334 68.0089 116.772 44.5971 128.657C37.4193 132.301 32.5865 135.894 29.3213 139.128H10.9054C9.03504 139.128 7.52021 140.767 7.52021 142.785L11.8228 160.244C11.8228 162.263 13.3403 163.903 15.2079 163.903H112.172C114.039 163.903 115.553 162.261 115.553 160.244L120.081 142.785C120.081 140.771 118.566 139.133 116.696 139.133L116.699 139.133Z" fill="url(#paint0_linear_13_2)"/>
<defs>
<linearGradient id="paint0_linear_13_2" x1="60.0407" y1="0" x2="60.0407" y2="163.903" gradientUnits="userSpaceOnUse">
<stop stop-color="#8B5CF6"/>
<stop offset="1" stop-color="#10B981"/>
</linearGradient>
</defs>
</svg>
